# xmcd CD database file
#
# Track frame offsets:
#	150
#	34442
#	54965
#	74335
#	94680
#	111695
#	135180
#	154800
#	177882
#	202652
#	221607
#	242522
#	261370
#	284810
#	312410
#	325810
#
# Disc length: 4673 seconds
#
# Revision: 8
# Processed by: cddbd v1.5.2PL0 Copyright (c) Steve Scherf et al.
# Submitted via: CDex 1.70beta3
#
DISCID=ee123f10
DTITLE=Celine Dion - Falling Into You
DYEAR=1996
DGENRE=Pop
TTITLE0=It's All Coming Back To Me Now
TTITLE1=Because You Loved Me
TTITLE2=Falling Into You
TTITLE3=Make You Happy
TTITLE4=Seduces Me
TTITLE5=All By Myself
TTITLE6=Declaration Of Love
TTITLE7=Dreamin' Of You
TTITLE8=I love You
TTITLE9=If That's What It Takes
TTITLE10=I Don't Know
TTITLE11=River Deep, Mountain High
TTITLE12=Your Light
TTITLE13=Call The Man
TTITLE14=Fly
TTITLE15=To Love You More
EXTD=YEAR: 1996
EXTT0=
EXTT1=
EXTT2=
EXTT3=
EXTT4=
EXTT5=
EXTT6=
EXTT7=
EXTT8=
EXTT9=
EXTT10=
EXTT11=
EXTT12=
EXTT13=
EXTT14=
EXTT15=
PLAYORDER=
